<svg xmlns="http://www.w3.org/2000/svg" xml:space="preserve" width="313.472" height="110" viewBox="0 0 313.472 110"><g transform="matrix(1.6138275,0,0,-1.6138275,4.5190036,105.12041) scale(0.1)"><path d="m 1709.72,561.141 v 0 -91.871 H 1739 v 61.171 h 106.53 V 469.27 h 29.24 v 91.695 l -165.05,0.176" style="fill:#e51c26;fill-opacity:1;fill-rule:nonzero;stroke:none"/><path d="m 909.574,590.383 v 0 h 104.516 c 15.73,4.539 27.32,16.379 30.54,29.687 H 880.27 v -89.41 h 135.88 V 499.219 H 910.977 c -15.489,-5.942 -26.946,-16.114 -30.149,-29.344 l -0.558,-1.23 h 165.12 V 560.41 H 909.574 v 29.973" style="fill:#e51c26;fill-opacity:1;fill-rule:nonzero;stroke:none"/><path d="m 1449.89,469.836 v 0 c 14.64,6.195 22.56,17.156 25.61,29.73 h -130.65 l 0.1,120.668 -29.28,-0.093 V 470.184 l 134.22,-0.348" style="fill:#e51c26;fill-opacity:1;fill-rule:nonzero;stroke:none"/><path d="m 1735.22,590.063 v 0 h 113.25 c 15.86,5.933 27.04,16.488 30.25,29.894 h -174.7 c 3.14,-13.406 15.34,-23.961 31.2,-29.894" style="fill:#e51c26;fill-opacity:1;fill-rule:nonzero;stroke:none"/><path d="m 472.066,589.434 v 0 H 585.32 c 15.93,5.937 27.453,17.007 30.719,30.421 H 441.34 c 3.25,-13.414 14.855,-24.484 30.726,-30.421" style="fill:#e51c26;fill-opacity:1;fill-rule:nonzero;stroke:none"/><path d="m 472.066,468.891 v 0 H 585.32 c 15.93,5.879 27.453,17.054 30.719,30.39 H 441.34 c 3.25,-13.336 14.855,-24.511 30.726,-30.39" style="fill:#e51c26;fill-opacity:1;fill-rule:nonzero;stroke:none"/><path d="m 9.83984,620.07 v 0 C 13.2422,606.801 24.7617,595.762 40.5078,589.848 h 47.6445 l 2.4454,-0.977 V 468.645 h 29.7653 v 120.226 l 2.707,0.977 h 47.707 c 15.614,5.914 27.18,16.953 30.536,30.222 v 0.321 H 9.83984 v -0.321" style="fill:#e51c26;fill-opacity:1;fill-rule:nonzero;stroke:none"/><path d="M 472.066,530.582 H 585.32 c 15.93,5.762 27.453,17 30.719,30.27 H 441.34 c 3.25,-13.27 14.855,-24.508 30.726,-30.27" style="fill:#e51c26;fill-opacity:1;fill-rule:nonzero;stroke:none"/><path d="M 2.98047,3.57422 V 159.469 H 118.379 V 133.121 H 34.5469 V 98.5039 H 112.5 V 72.1602 H 34.5469 V 29.918 H 121.426 V 3.57422 H 2.98047" style="fill:#7b7979;fill-opacity:1;fill-rule:nonzero;stroke:none"/><path d="M 341.746,3.57422 V 159.469 h 30.555 L 436.461,54.9922 V 159.469 h 29.18 V 3.57422 H 434.105 L 370.926,106.051 V 3.57422 h -29.18" style="fill:#7b7979;fill-opacity:1;fill-rule:nonzero;stroke:none"/><path d="M 699.453,3.57422 V 159.469 H 814.855 V 133.121 H 731.023 V 98.5039 h 77.954 V 72.1602 H 731.023 V 29.918 h 86.879 V 3.57422 H 699.453" style="fill:#7b7979;fill-opacity:1;fill-rule:nonzero;stroke:none"/><path d="M 1036.33,3.57422 V 159.469 h 66.3 c 16.66,0 28.78,-1.418 36.32,-4.211 7.59,-2.793 13.61,-7.766 18.15,-14.914 4.54,-7.184 6.82,-15.352 6.82,-24.567 0,-11.722 -3.41,-21.3747 -10.27,-28.9957 -6.86,-7.6211 -17.09,-12.4102 -30.74,-14.4063 6.79,-3.9531 12.38,-8.3086 16.77,-13.0625 4.43,-4.7539 10.38,-13.207 17.86,-25.3281 l 19.01,-30.41018 h -37.63 l -22.57,34.03908 c -8.1,12.082 -13.65,19.7031 -16.66,22.8594 -2.98,3.125 -6.14,5.3007 -9.47,6.457 -3.38,1.1641 -8.68,1.7461 -15.93,1.7461 h -6.4 V 3.57422 Z m 31.56,89.92188 h 23.31 c 15.09,0 24.5,0.6523 28.27,1.9219 3.74,1.2695 6.71,3.4843 8.82,6.605 2.14,3.118 3.19,7.043 3.19,11.723 0,5.262 -1.41,9.469 -4.21,12.734 -2.79,3.231 -6.75,5.266 -11.83,6.094 -2.58,0.367 -10.23,0.547 -22.98,0.547 h -24.57 V 93.4961" style="fill:#7b7979;fill-opacity:1;fill-rule:nonzero;stroke:none"/><path d="m 1459.62,60.8359 v 26.3438 h 67.71 V 24.9844 c -6.56,-6.4258 -16.11,-12.0469 -28.63,-16.94534 -12.48,-4.86328 -25.15,-7.292966 -38,-7.292966 -16.29,0 -30.48,3.410156 -42.6,10.269506 -12.08,6.8594 -21.19,16.6914 -27.29,29.4297 -6.1,12.7344 -9.15,26.6367 -9.15,41.6211 0,16.2539 3.42,30.6996 10.2,43.3636 6.82,12.625 16.77,22.351 29.87,29.101 10.02,5.192 22.43,7.77 37.31,7.77 19.34,0 34.47,-4.071 45.36,-12.196 10.85,-8.167 17.85,-19.378 20.97,-33.75 l -31.35,-5.878 c -2.18,7.656 -6.31,13.714 -12.38,18.179 -6.02,4.43 -13.57,6.645 -22.64,6.645 -13.71,0 -24.64,-4.356 -32.73,-13.102 -8.09,-8.746 -12.16,-21.699 -12.16,-38.8631 0,-18.5429 4.1,-32.4453 12.3,-41.6953 8.24,-9.2539 18.98,-13.8984 32.3,-13.8984 6.57,0 13.17,1.3047 19.78,3.8828 6.64,2.5781 12.3,5.7344 17.05,9.4336 v 19.7773 h -35.92" style="fill:#7b7979;fill-opacity:1;fill-rule:nonzero;stroke:none"/><path d="M 1788.43,3.57422 V 69.1797 l -57.15,90.2893 h 36.9 l 36.87,-61.7307 35.89,61.7307 h 36.22 L 1820,68.9648 V 3.57422 h -31.57" style="fill:#7b7979;fill-opacity:1;fill-rule:nonzero;stroke:none"/><path d="M 13.3945,320.043 H 1875.3 c 4.47,0 8.13,-3.656 8.13,-8.125 v 0 c 0,-4.473 -3.66,-8.125 -8.13,-8.125 H 13.3945 c -4.46872,0 -8.12497,3.652 -8.12497,8.125 v 0 c 0,4.469 3.65625,8.125 8.12497,8.125" style="fill:#7b7979;fill-opacity:1;fill-rule:evenodd;stroke:none"/></g></svg>