<?xml version="1.0" encoding="utf-8"?>
<!-- Generator: Adobe Illustrator 16.0.2, SVG Export Plug-In . SVG Version: 6.00 Build 0)  -->
<!DOCTYPE svg PUBLIC "-//W3C//DTD SVG 1.1//EN" "http://www.w3.org/Graphics/SVG/1.1/DTD/svg11.dtd">
<svg version="1.1" id="Ebene_1" xmlns="http://www.w3.org/2000/svg" xmlns:xlink="http://www.w3.org/1999/xlink" x="0px" y="0px"
	 width="287.017px" height="52.315px" viewBox="0 0 287.017 52.315" enable-background="new 0 0 287.017 52.315"
	 xml:space="preserve">
<g>
	<path fill-rule="evenodd" clip-rule="evenodd" fill="#FE9903" d="M45.116,0.48c0.374,0.855,1.258,0.547,1.876,0.735
		c4.886,1.482,8.069,4.631,8.885,9.658c0.975,5.999,1.351,12.022-3.811,16.672c-0.746,0.672-0.593,1.117,0.005,1.745
		c2.839,2.973,3.565,6.658,3.532,10.604c-0.027,3.195-0.099,6.394,0.032,9.583c0.071,1.74-0.581,2.266-2.2,2.097
		c-2.274-0.236-5.2,0.98-6.671-0.522c-1.357-1.388-0.317-4.262-0.402-6.479c-0.064-1.675,0.003-3.354-0.016-5.031
		c-0.053-4.574-2.229-7.158-6.785-7.241c-9.502-0.175-19.009-0.035-28.514-0.094c-1.458-0.01-1.465,0.743-1.46,1.797
		c0.025,5.191-0.043,10.384,0.044,15.575c0.026,1.552-0.401,2.145-1.998,2.006c-2.376-0.205-4.78,0.217-7.155-0.229
		c0-9.279,0-18.559,0-27.837c13.252,0.025,26.505,0.073,39.757,0.063c4.524-0.003,6.789-2.101,6.874-6.15
		c0.125-5.945-1.568-8.274-6.636-8.313C27.145,9.018,13.812,9.106,0.48,9.119c0-2.4,0.077-4.803-0.032-7.198
		C0.393,0.713,0.72,0.445,1.92,0.449C16.318,0.497,30.717,0.48,45.116,0.48z"/>
	<path fill-rule="evenodd" clip-rule="evenodd" fill="#FE9903" d="M134.868,0.48c0,2.158-0.108,4.324,0.035,6.472
		c0.112,1.693-0.449,2.139-2.128,2.129c-12.549-0.07-25.1,0.007-37.649-0.083c-2.086-0.014-2.864,0.375-2.829,2.694
		c0.146,9.59,0.113,19.185,0.018,28.775c-0.019,1.946,0.449,2.586,2.497,2.57c12.469-0.095,24.94-0.009,37.409-0.088
		c1.954-0.012,3.029,0.261,2.675,2.545c-0.302,1.948,0.851,4.582-0.487,5.726c-1.129,0.966-3.661,0.332-5.572,0.334
		c-13.189,0.012-26.379,0.012-39.568,0.004c-4.778-0.003-6.158-1.384-6.159-6.128c-0.003-12.869,0.059-25.739-0.05-38.608
		c-0.022-2.688,0.622-4.802,2.853-6.343C102.231,0.48,118.55,0.48,134.868,0.48z"/>
	<path fill-rule="evenodd" clip-rule="evenodd" fill="#FE9903" d="M258.697,0.48c1.35,0.757,2.304,1.828,3.089,3.198
		c8.105,14.131,16.24,28.247,24.458,42.313c1.003,1.717,0.938,2.636-0.934,3.404c-1.97,0.81-3.824,3.274-5.595,2.651
		c-1.513-0.532-2.286-3.252-3.323-5.041c-7.003-12.094-13.987-24.198-20.982-36.297c-1.315-2.273-5.877-2.503-7.143-0.315
		c-7.916,13.688-15.806,27.391-23.702,41.09c-0.234,0.406-0.595,0.773-0.425,1.312c-0.32,0-0.64,0-0.96,0
		c-1.834-1.116-3.609-2.349-5.521-3.311c-1.505-0.759-1.617-1.416-0.77-2.862c6.015-10.259,11.933-20.574,17.882-30.871
		c2.236-3.87,4.507-7.721,6.693-11.618c0.837-1.492,1.847-2.762,3.313-3.653C249.418,0.48,254.058,0.48,258.697,0.48z"/>
	<path fill-rule="evenodd" clip-rule="evenodd" fill="#FE9903" d="M160.786,0.48c1.774,1.587,3.625,3.099,5.312,4.775
		c8.957,8.903,17.857,17.865,26.824,26.758c1.044,1.034,1.552,2.044,1.497,3.544c-0.116,3.174-0.035,6.354-0.035,10.01
		c-1.894-1.812-3.503-3.299-5.056-4.844c-10.026-9.98-20.101-19.916-30.007-30.015c-1.756-1.791-3.597-1.689-5.639-1.646
		c-1.298,0.028-0.965,1.043-0.969,1.766c-0.023,4.796-0.013,9.592-0.013,14.388c0,8.073-0.043,16.147,0.036,24.22
		c0.016,1.651-0.413,2.289-2.126,2.156c-1.827-0.141-3.678-0.097-5.512-0.011c-1.278,0.061-1.617-0.434-1.613-1.658
		c0.035-14.947,0.039-29.895,0.009-44.843c-0.004-2.208,1.344-3.435,2.891-4.6C151.187,0.48,155.986,0.48,160.786,0.48z"/>
	<path fill-rule="evenodd" clip-rule="evenodd" fill="#FE9D0B" d="M74.394,0.48c-0.022,16.125-0.1,32.249-0.006,48.373
		c0.014,2.376-0.662,3.106-2.93,2.817c-2.035-0.261-4.664,0.836-6.003-0.453c-1.355-1.304-0.441-3.937-0.447-5.98
		c-0.041-14.05-0.018-28.1-0.03-42.149c0-0.869-0.12-1.738-0.184-2.607C67.994,0.48,71.194,0.48,74.394,0.48z"/>
	<path fill-rule="evenodd" clip-rule="evenodd" fill="#FE9D0B" d="M210.701,0.48c-0.021,15.094-0.044,30.188-0.065,45.283
		c-0.007,4.743-4.139,7.545-8.588,5.833c-1.193-0.46-0.73-1.48-0.732-2.264c-0.03-11.341,0.014-22.683-0.037-34.024
		c-0.022-4.942,0.257-9.89-0.176-14.828C204.303,0.48,207.502,0.48,210.701,0.48z"/>
	<path fill-rule="evenodd" clip-rule="evenodd" fill="#FE9903" d="M119.84,20.234c4.544,0,4.544,0,4.544,4.456
		c0,4.182,0,4.182-4.074,4.182c-5.121,0-5.121,0-5.121-5.033C115.189,20.234,115.189,20.234,119.84,20.234z"/>
	<path fill-rule="evenodd" clip-rule="evenodd" fill="#FE9D0B" d="M251.748,36.004c-4.378,0-4.378,0-4.378-4.322
		c0-0.477,0.061-0.963-0.011-1.429c-0.285-1.867,0.438-2.683,2.343-2.353c0.154,0.026,0.317,0.004,0.476,0.003
		c5.955-0.005,5.859-0.003,5.979,5.663c0.043,2.008-0.535,2.753-2.505,2.453C253.031,35.925,252.384,36.004,251.748,36.004z"/>
</g>
</svg>
